<svg width="25" height="24" viewBox="0 0 25 24" fill="none" xmlns="http://www.w3.org/2000/svg">
<path d="M12.5 9.75C12.5 10.3467 12.2629 10.919 11.841 11.341C11.419 11.7629 10.8467 12 10.25 12C9.65326 12 9.08097 11.7629 8.65901 11.341C8.23705 10.919 8 10.3467 8 9.75V6C8 5.40326 8.23705 4.83097 8.65901 4.40901C9.08097 3.98705 9.65326 3.75 10.25 3.75C10.8467 3.75 11.419 3.98705 11.841 4.40901C12.2629 4.83097 12.5 5.40326 12.5 6V9.75Z" stroke="#EA5817" stroke-width="1.125" stroke-linecap="round" stroke-linejoin="round"/>
<path d="M12.5 6C12.5 5.40326 12.7371 4.83097 13.159 4.40901C13.581 3.98705 14.1533 3.75 14.75 3.75C15.3467 3.75 15.919 3.98705 16.341 4.40901C16.7629 4.83097 17 5.40326 17 6V8.25" stroke="#EA5817" stroke-width="1.125" stroke-linecap="round" stroke-linejoin="round"/>
<path d="M12.5 16.5C12.5 15.5054 12.8951 14.5516 13.5983 13.8483C14.3016 13.1451 15.2554 12.75 16.25 12.75H14.75C14.1533 12.75 13.581 12.5129 13.159 12.091C12.7371 11.669 12.5 11.0967 12.5 10.5V9C12.5 8.80109 12.579 8.61032 12.7197 8.46967C12.8603 8.32902 13.0511 8.25 13.25 8.25H19.25C19.8467 8.25 20.419 8.48705 20.841 8.90901C21.2629 9.33097 21.5 9.90326 21.5 10.5V12C21.5 14.3869 20.5518 16.6761 18.864 18.364C17.1761 20.0518 14.8869 21 12.5 21C10.1131 21 7.82387 20.0518 6.13604 18.364C4.44821 16.6761 3.5 14.3869 3.5 12V8.25C3.5 7.65326 3.73705 7.08097 4.15901 6.65901C4.58097 6.23705 5.15326 6 5.75 6C6.34674 6 6.91903 6.23705 7.34099 6.65901C7.76295 7.08097 8 7.65326 8 8.25V9.75C8 10.3467 7.76295 10.919 7.34099 11.341C6.91903 11.7629 6.34674 12 5.75 12C5.15326 12 4.58097 11.7629 4.15901 11.341C3.73705 10.919 3.5 10.3467 3.5 9.75" stroke="#EA5817" stroke-width="1.125" stroke-linecap="round" stroke-linejoin="round"/>
</svg>
