<svg width="24" height="24" viewBox="0 0 24 24" fill="none" xmlns="http://www.w3.org/2000/svg">
<path d="M12 12.75V7.5" stroke="#CE7F00" stroke-width="1.5" stroke-linecap="round" stroke-linejoin="round"/>
<path d="M12 15.0469C12.5954 15.0469 13.0781 15.5296 13.0781 16.125C13.0781 16.7204 12.5954 17.2031 12 17.2031C11.4046 17.2031 10.9219 16.7204 10.9219 16.125C10.9219 15.5296 11.4046 15.0469 12 15.0469Z" fill="#CE7F00" stroke="#CE7F00" stroke-width="0.09375"/>
<path d="M11.4728 2.46864L2.46842 11.473C2.17736 11.764 2.17736 12.236 2.46842 12.527L11.4728 21.5314C11.7638 21.8224 12.2357 21.8224 12.5268 21.5314L21.5311 12.527C21.8222 12.236 21.8222 11.764 21.5311 11.473L12.5268 2.46864C12.2357 2.17758 11.7638 2.17758 11.4728 2.46864Z" stroke="#CE7F00" stroke-width="1.5" stroke-linecap="round" stroke-linejoin="round"/>
</svg>
