<svg xmlns="http://www.w3.org/2000/svg" viewBox="0 0 80 80" width="80" height="80">
<rect width="80" height="80" fill="#FBDED1"/>
<path d="M14 80 C14 63 30 56 40 56 C50 56 66 63 66 80 Z" fill="#EA5817"/>
<rect x="35.5" y="47" width="9" height="12" rx="4" fill="#E0AC85"/>
<circle cx="40" cy="38" r="15" fill="#E0AC85"/>
<path d="M22 52 C20 34 26 24 40 24 C54 24 60 34 58 52 C56 44 54 38 54 36 C54 30 48 27 40 27 C32 27 26 30 26 36 C26 38 24 44 22 52 Z" fill="#6B4423"/>
<circle cx="34.5" cy="39" r="1.7" fill="#3a2a1a"/>
<circle cx="45.5" cy="39" r="1.7" fill="#3a2a1a"/>
<path d="M35 44.5 Q40 48.5 45 44.5" stroke="#3a2a1a" stroke-width="1.6" fill="none" stroke-linecap="round"/>
</svg>