<svg width="48" height="48" viewBox="0 0 48 48" fill="none" xmlns="http://www.w3.org/2000/svg">
<path d="M38.0235 4.19903C38.0235 4.19903 39.1881 5.19568 39.2511 5.25797C39.4399 5.47599 39.9121 6.37921 40.0695 6.50379C40.2583 6.65952 40.6046 6.65952 40.762 6.75296C41.2971 7.1267 43.2171 9.46261 43.6893 10.1167C44.0985 10.6461 44.067 11.2068 44.4447 11.7362C44.6336 12.0165 45.1372 12.2968 45.1687 12.328C45.2631 12.4837 45.1687 12.764 45.2631 12.982C45.5149 13.5738 45.5149 13.1066 45.6723 14.0098C45.8297 14.9131 46.1444 14.8508 46.3962 15.3491C46.5851 15.7228 46.4277 16.1589 46.5536 16.4392C46.6795 16.7818 47.0887 17.0932 47.1517 17.3736C47.3405 18.121 47.4979 19.0243 47.6868 19.8652C48.0645 21.329 48.033 24.5993 47.9386 26.4369C47.9386 26.9663 47.9701 27.1844 47.9701 27.4647C47.9701 27.5581 47.7182 27.6827 47.6553 27.8696C47.6238 27.9941 47.7497 28.2745 47.6868 28.4613C47.5294 29.1777 47.4035 29.8006 47.2776 30.4858C47.0258 31.825 46.3018 32.3857 45.8611 33.5069C45.6093 34.1298 45.7038 35.0642 45.1372 35.8428C44.8539 36.2477 44.3817 36.4034 44.0355 36.8395C43.1856 37.9295 43.2486 38.5836 41.9895 39.6737C41.0452 40.4835 40.3213 41.6981 39.314 42.5702C38.8419 42.9751 37.5828 43.2243 37.4255 43.4734C37.331 43.6292 37.4884 43.816 37.4569 43.9406C37.2051 44.9061 36.3867 44.4078 35.8202 44.657C35.6313 44.7504 35.2221 45.2176 34.9073 45.4044C34.687 45.5602 33.1132 46.4011 33.0188 46.4634C32.641 46.588 32.2633 46.4634 31.98 46.5257C31.8227 46.5568 31.8541 46.8371 31.6653 46.9306C29.336 47.7715 23.2925 48.1764 20.7744 47.9272C19.8301 47.8338 18.3822 47.242 17.375 46.9929C15.5493 46.5568 15.7382 46.8994 14.007 45.8405C13.4719 45.529 12.5276 45.1241 12.024 44.7815C11.1741 44.2209 10.3872 43.162 9.3485 43.1931L9.4744 42.6325C9.25407 42.5391 8.78192 42.5391 8.62454 42.4145C8.46716 42.2899 8.49863 42.0407 8.4042 41.9473C8.08944 41.5424 6.70448 40.5458 6.1379 39.954C5.63428 39.4245 4.06046 37.5869 3.77717 36.964C3.65126 36.6837 3.77717 36.3411 3.68274 36.1542C3.65126 36.092 2.99026 35.8428 2.73845 35.5002C2.17187 34.6281 1.63677 32.1988 1.44791 31.1087C0.78691 30.8907 0.157382 28.7416 0.188858 28.181C0.188858 27.9941 0.409193 27.8384 0.409193 27.745C0.409193 27.6515 0.125906 27.4024 0.0629528 27.1532C0 26.9041 0.125906 26.25 0.0944292 25.9385C0.0314764 24.6304 0.188858 23.5715 0.157382 22.2011C0.157382 21.9519 0 21.7339 0 21.4847C0 21.2356 0.314764 21.2979 0.377717 21.0176C0.44067 20.7373 0.188858 20.5192 0.188858 20.2701C0.188858 20.0209 0.503623 19.5226 0.566575 19.1177C0.598052 18.7439 0.472146 18.0588 0.629528 17.6227C0.723957 17.4047 1.10167 17.3736 1.1961 16.9998C1.29053 16.6261 1.1961 16.2835 1.29053 15.972C1.35349 15.7851 1.6053 15.6917 1.66825 15.5048C1.7312 15.2557 1.54234 14.7573 1.85711 14.4147C2.01449 14.259 2.42368 14.2902 2.48664 14.0098C2.54959 13.7295 2.45516 12.9198 2.70697 12.4526C2.8014 12.2968 3.17912 12.2034 3.3365 11.9542C3.52536 11.7051 3.55683 11.269 3.77717 10.9887C5.13066 9.08886 6.38971 7.56274 8.15239 6.03661C8.2783 5.91203 8.56158 5.94317 8.62454 5.88088C8.71897 5.78745 8.59306 5.44485 8.78192 5.28912C8.97078 5.13339 9.63178 5.16454 9.97802 4.82194C10.702 4.10559 11.1427 3.29581 12.4017 2.92207C12.685 2.82863 13.0627 2.92207 13.283 2.82863C13.5034 2.70405 13.4404 2.3303 13.6608 2.17458C13.9755 1.9877 14.6365 1.9877 15.0142 1.86312C15.4549 1.70739 16.6195 0.866467 16.7455 0.804176C17.0287 0.71074 17.375 0.804176 17.6583 0.741885C22.5686 -0.566223 27.6363 -0.0367508 32.4837 1.48938C32.8299 1.58281 32.8299 2.04999 33.0817 2.14343C33.428 2.26801 33.9001 2.08114 34.2778 2.20572C34.9388 2.39259 36.072 3.66956 36.6071 3.91872C36.9848 4.07445 37.394 3.91872 37.8346 4.16788L38.0235 4.19903ZM42.9024 20.4258C42.7764 20.2389 42.2728 19.398 42.2099 19.3669C42.0525 19.2423 39.6288 17.8719 39.4399 17.8096C38.5271 17.5293 37.4569 17.2801 36.5756 17.0621C36.0405 16.9064 35.1906 16.9064 34.687 16.7195C34.089 16.5015 32.7669 15.318 32.5151 14.695C32.3578 14.3213 32.4837 13.823 32.3892 13.5427C32.1689 12.8575 31.7597 12.11 31.5708 11.3313C31.4449 10.8642 31.382 9.30688 31.2876 9.12001C31.2246 8.93314 28.8009 6.34806 28.5806 6.25463C27.7622 5.88088 27.0382 5.94317 26.2828 5.7563C25.7792 5.63172 25.2441 5.25797 24.646 5.16454C22.8834 4.88423 19.9246 6.00546 18.697 7.18899C16.7455 9.02657 16.9343 10.4281 16.1789 12.7329C16.0844 12.982 15.7697 13.2624 15.7382 13.5427C15.7382 13.7295 15.9585 13.8541 15.9271 14.0098C15.8326 14.7573 15.0142 15.7851 14.4162 16.2523C13.8181 16.7506 10.5446 17.2801 9.50588 17.6227C7.99501 18.121 6.07495 19.1488 5.22508 20.5192C4.9418 20.9864 4.84737 21.7339 4.68999 22.1388C4.62703 22.3257 4.18636 22.7929 3.93455 22.8551V23.042C4.59556 23.6961 4.12341 24.6927 4.24932 25.1911C4.24932 25.3156 4.9418 26.9975 5.00475 27.0909C5.19361 27.4024 5.50837 27.4647 5.72871 27.7761C5.94904 28.0876 6.01199 28.7416 6.04347 28.7728C6.10642 28.8351 7.68024 29.2711 8.02649 29.5203C8.71897 30.0186 8.15239 29.9563 9.28554 30.2366C10.3243 30.4858 11.3945 30.5792 12.4961 30.9218C14.0385 31.389 13.6922 31.389 14.731 32.3857C14.8569 32.5102 15.1716 32.5102 15.2346 32.6037C15.2975 32.666 16.0215 34.0364 16.0215 34.0987C16.1789 34.7216 16.1159 36.2477 16.3048 36.7149C16.5566 37.3066 16.4936 36.9329 16.6825 37.7115C16.9658 38.8639 17.8471 40.4835 18.9173 41.0441C19.5154 41.3555 20.5541 41.5113 21.0577 41.8539C21.3095 42.0096 21.3725 42.2899 21.5299 42.3833C22.3168 42.8194 24.8978 42.5079 25.8421 42.3833C26.2513 42.3522 26.8809 42.4768 27.2271 42.3833C27.3845 42.3522 27.353 42.0407 27.5419 41.9784C27.7937 41.885 28.1084 42.0096 28.3288 41.9473C28.3602 41.9473 29.0213 41.3244 29.0527 41.2932C29.1157 41.1998 28.9583 40.9818 29.1157 40.7949C29.336 40.5146 30.5321 39.8917 30.5951 39.7671C30.6895 39.6114 31.6338 37.3689 31.6653 37.2132C31.7597 35.9362 31.9171 35.2822 32.4207 34.0987C32.5151 33.9118 32.3578 33.6626 32.4837 33.3512C32.8299 32.4168 33.2706 32.4168 33.9001 31.9496C34.1204 31.7939 34.1519 31.5136 34.3408 31.4201C34.687 31.2956 35.0647 31.3579 35.4424 31.2644C36.009 31.1087 36.4812 30.6415 36.7959 30.5481C37.7402 30.2055 39.1881 30.2989 40.0695 30.0497C40.1954 30.0186 41.8951 28.8974 42.021 28.7728L44.004 26.1566C43.8466 24.9419 44.004 23.6649 43.8152 22.4503C43.7837 22.1699 43.0597 20.675 42.9338 20.4881L42.9024 20.4258Z" fill="#1B201A"/>
<path d="M27.2277 19.0547C28.6127 20.2071 28.5812 20.0514 29.4311 21.7644C29.494 21.9201 29.7144 21.8578 29.8088 22.2627C30.0291 23.1348 29.8088 24.3806 29.7144 25.2838C29.6514 25.969 29.8403 25.8133 29.3367 26.5919C29.1163 26.9345 28.833 27.4951 28.7071 27.682C28.6442 27.7755 28.172 27.9 27.9832 28.0246C27.7628 28.1803 27.7628 28.5541 27.3222 28.4295L27.4481 28.9901C26.7556 28.8344 26.1261 29.3016 25.5595 29.395C24.6782 29.5196 22.5692 29.2704 21.6879 29.0836C21.2157 28.9901 20.2085 28.4607 19.8937 28.0869C19.6734 27.8066 19.516 27.3706 19.2642 27.028C18.9809 26.6542 18.7606 26.9345 18.6347 26.1247C18.4143 24.5986 18.4143 24.256 18.6976 22.6053C18.7291 22.3561 18.6347 22.0447 18.6976 21.8267C19.0754 20.3628 20.5233 19.9268 21.4046 18.8367L21.6879 18.7433C23.1358 18.7433 24.5523 18.4318 26.0002 18.5875C26.6926 18.6498 26.7871 18.681 27.2592 19.0859L27.2277 19.0547Z" fill="#1B201A"/>
</svg>
